<svg xmlns="http://www.w3.org/2000/svg" viewBox="0 0 800 800" fill="none">
  <rect width="800" height="800" fill="#F8F2EA"/>
  <circle cx="635" cy="165" r="120" fill="#F5E58E" fill-opacity="0.45"/>
  <circle cx="165" cy="640" r="115" fill="#F6C5AD" fill-opacity="0.4"/>
  <ellipse cx="280" cy="660" rx="130" ry="44" fill="#D9C7A9"/>
  <ellipse cx="525" cy="670" rx="130" ry="40" fill="#D9C7A9"/>
  <ellipse cx="280" cy="275" rx="96" ry="32" fill="#F7F3EE" stroke="#724F28" stroke-width="6"/>
  <path d="M196 275H364L336 640H224L196 275Z" fill="#C0522A"/>
  <path d="M214 330H346" stroke="#F7F3EE" stroke-width="10" stroke-dasharray="16 14"/>
  <path d="M208 420H352" stroke="#F7F3EE" stroke-width="10" stroke-dasharray="16 14"/>
  <path d="M202 510H358" stroke="#F7F3EE" stroke-width="10" stroke-dasharray="16 14"/>
  <ellipse cx="525" cy="315" rx="118" ry="38" fill="#F7F3EE" stroke="#724F28" stroke-width="6"/>
  <path d="M422 315H628L596 650H454L422 315Z" fill="#8B6435"/>
  <path d="M442 380H608" stroke="#F5E58E" stroke-width="10" stroke-dasharray="16 14"/>
  <path d="M436 470H614" stroke="#F5E58E" stroke-width="10" stroke-dasharray="16 14"/>
  <path d="M430 560H620" stroke="#F5E58E" stroke-width="10" stroke-dasharray="16 14"/>
  <path d="M132 182L230 265" stroke="#4F3510" stroke-width="10" stroke-linecap="round"/>
  <path d="M668 178L590 282" stroke="#4F3510" stroke-width="10" stroke-linecap="round"/>
  <text x="400" y="742" text-anchor="middle" font-family="Georgia,serif" font-size="44" font-weight="700" fill="#5B3D1F">Royal Drum Traditions</text>
</svg>
