<svg xmlns="http://www.w3.org/2000/svg" viewBox="0 0 800 800" fill="none">
  <rect width="800" height="800" fill="#F7F3EE"/>
  <circle cx="620" cy="145" r="105" fill="#F5E58E" fill-opacity="0.48"/>
  <circle cx="170" cy="645" r="130" fill="#F6C5AD" fill-opacity="0.34"/>
  <ellipse cx="400" cy="715" rx="210" ry="44" fill="#D9C7A9"/>
  <circle cx="400" cy="168" r="68" fill="#8B6435"/>
  <path d="M270 280C270 236 328 210 400 210C472 210 530 236 530 280V660H270V280Z" fill="#FFFDF8" stroke="#D9C7A9" stroke-width="6"/>
  <path d="M400 222V660" stroke="#C0522A" stroke-width="10"/>
  <path d="M330 245L248 372L308 408L362 292L330 245Z" fill="#D4A017"/>
  <path d="M470 245L552 372L492 408L438 292L470 245Z" fill="#D4A017"/>
  <path d="M330 305H470" stroke="#8B6435" stroke-width="8"/>
  <path d="M300 470H500" stroke="#EDE4D4" stroke-width="12"/>
  <path d="M300 560H500" stroke="#EDE4D4" stroke-width="12"/>
  <path d="M286 662H514" stroke="#8A5E11" stroke-width="12" stroke-linecap="round"/>
  <text x="400" y="742" text-anchor="middle" font-family="Georgia,serif" font-size="44" font-weight="700" fill="#5B3D1F">Kanzu Heritage</text>
</svg>
